<svg width="354" height="354" viewBox="0 0 354 354" fill="none" xmlns="http://www.w3.org/2000/svg">
<g clip-path="url(#clip0_1_6)">
<rect width="354" height="354" fill="#2C5E7D"/>
<path d="M144.766 135.789C137.604 132.495 130.586 129.952 123.711 128.162C116.908 126.3 110.928 125.369 105.771 125.369C100.329 125.369 96.4616 125.906 94.1699 126.98C91.8783 127.983 90.7324 129.773 90.7324 132.352C90.7324 134.643 92.4154 136.469 95.7812 137.83C99.1471 139.119 104.089 140.623 110.605 142.342C117.122 144.061 122.959 145.958 128.115 148.035C133.271 150.112 137.64 152.69 141.221 155.77C144.873 158.849 147.63 162.537 149.492 166.834C151.426 171.131 152.393 176.395 152.393 182.625C152.393 188.211 151.318 193.331 149.17 197.986C147.021 202.57 143.763 206.508 139.395 209.803C135.026 213.097 129.512 215.639 122.852 217.43C116.191 219.22 108.35 220.115 99.3262 220.115C91.3053 220.115 83.2487 219.507 75.1562 218.289C67.0638 217.143 58.8997 215.066 50.6641 212.059V178.865C58.0404 182.088 65.4525 184.666 72.9004 186.6C80.3483 188.533 87.4382 189.5 94.1699 189.5C106.273 189.5 112.324 186.993 112.324 181.98C112.324 181.121 112.038 180.333 111.465 179.617C110.892 178.901 109.818 178.221 108.242 177.576C106.738 176.86 104.59 176.144 101.797 175.428C99.0755 174.64 95.5664 173.709 91.2695 172.635C85.3255 171.202 79.7038 169.376 74.4043 167.156C69.1764 164.865 64.5931 162.107 60.6543 158.885C56.7871 155.59 53.7077 151.759 51.416 147.391C49.196 143.022 48.0859 138.045 48.0859 132.459C48.0859 127.446 49.1243 122.827 51.2012 118.602C53.3496 114.376 56.5365 110.76 60.7617 107.752C65.0586 104.744 70.3581 102.417 76.6602 100.77C83.0339 99.0508 90.4102 98.1914 98.7891 98.1914C103.659 98.1914 108.314 98.4062 112.754 98.8359C117.266 99.2656 121.527 99.8027 125.537 100.447C129.548 101.02 133.271 101.665 136.709 102.381C140.218 103.025 143.441 103.634 146.377 104.207L144.766 135.789ZM258.848 197.02C255.84 203.322 251.185 208.227 244.883 211.736C238.581 215.245 231.312 217 223.076 217C214.268 217 206.569 215.353 199.98 212.059C193.464 208.764 188.057 204.432 183.76 199.061C179.463 193.689 176.24 187.531 174.092 180.584C172.015 173.637 170.977 166.512 170.977 159.207C170.977 151.688 172.051 144.311 174.199 137.078C176.419 129.773 179.642 123.257 183.867 117.527C188.164 111.727 193.464 107.072 199.766 103.562C206.068 99.9818 213.337 98.1914 221.572 98.1914C226.872 98.1914 231.598 98.8001 235.752 100.018C239.977 101.235 243.701 102.99 246.924 105.281C250.146 107.501 252.939 110.187 255.303 113.338C257.666 116.417 259.707 119.891 261.426 123.758C261.426 123.113 261.354 121.788 261.211 119.783C261.068 117.778 260.853 115.594 260.566 113.23C260.352 110.867 260.101 108.576 259.814 106.355C259.528 104.064 259.242 102.309 258.955 101.092H305.361V192.078C305.361 205.04 303.75 216.284 300.527 225.809C297.376 235.405 292.829 243.354 286.885 249.656C280.941 256.03 273.636 260.757 264.971 263.836C256.377 266.987 246.673 268.562 235.859 268.562C231.491 268.562 227.588 268.455 224.15 268.24C220.785 268.025 217.562 267.703 214.482 267.273C211.403 266.844 208.288 266.307 205.137 265.662C202.057 265.018 198.656 264.266 194.932 263.406L198.154 236.336C200.16 236.909 202.415 237.446 204.922 237.947C207.5 238.449 210.15 238.878 212.871 239.236C215.664 239.666 218.493 239.988 221.357 240.203C224.222 240.49 226.943 240.633 229.521 240.633C235.68 240.633 240.658 239.451 244.453 237.088C248.32 234.725 251.292 231.538 253.369 227.527C255.518 223.517 256.95 218.898 257.666 213.67C258.454 208.37 258.848 202.82 258.848 197.02ZM214.268 159.314C214.268 165.187 214.912 170.092 216.201 174.031C217.49 177.97 219.173 181.157 221.25 183.592C223.398 185.955 225.798 187.674 228.447 188.748C231.169 189.751 233.926 190.252 236.719 190.252C239.512 190.252 242.233 189.751 244.883 188.748C247.533 187.674 249.896 185.955 251.973 183.592C254.049 181.157 255.697 177.97 256.914 174.031C258.203 170.021 258.848 165.079 258.848 159.207C258.848 153.406 258.203 148.536 256.914 144.598C255.697 140.587 254.049 137.365 251.973 134.93C249.896 132.495 247.533 130.776 244.883 129.773C242.305 128.699 239.619 128.162 236.826 128.162C234.033 128.162 231.276 128.699 228.555 129.773C225.905 130.776 223.506 132.495 221.357 134.93C219.209 137.365 217.49 140.587 216.201 144.598C214.912 148.536 214.268 153.442 214.268 159.314Z" fill="#F9D904"/>
</g>
<defs>
<clipPath id="clip0_1_6">
<rect width="354" height="354" fill="white"/>
</clipPath>
</defs>
</svg>
